<svg xmlns="http://www.w3.org/2000/svg" viewBox="0 0 960 480" role="img" aria-label="Dokumen Wajib SMK3">
<defs>
<linearGradient id="bg" x1="0" y1="0" x2="1" y2="1">
<stop offset="0" stop-color="#f4f8fb"/><stop offset="1" stop-color="#dcE9f4"/>
</linearGradient>
<pattern id="dots" width="26" height="26" patternUnits="userSpaceOnUse">
<circle cx="3" cy="3" r="2" fill="#c7dcee" opacity=".55"/>
</pattern>
</defs>
<rect width="960" height="480" fill="url(#bg)"/>
<rect width="960" height="480" fill="url(#dots)"/>
<circle cx="750" cy="240" r="215" fill="#ffffff" opacity=".65"/>
<circle cx="750" cy="240" r="168" fill="#e8f1f9"/>
<path d="M0 470 q240 -36 480 0 q240 36 480 0 v10 h-960 z" fill="#0b4f8a" opacity=".12"/>
<rect x="66" y="118" width="56" height="10" rx="5" fill="#f28c1e"/>
<text x="70" y="166" font-family="Arial, sans-serif" font-size="21" font-weight="bold" letter-spacing="2" fill="#0b4f8a">IMPLEMENTASI • DOKUMEN</text>
<text x="70" y="250" font-family="Arial, sans-serif" font-size="30" font-weight="bold" fill="#083a66">Dokumen Wajib SMK3</text>
<rect x="70" y="330" width="140" height="42" rx="21" fill="#0b4f8a" opacity=".1"/>
<text x="140" y="357" text-anchor="middle" font-family="Arial, sans-serif" font-size="17" font-weight="bold" fill="#083a66">PP 50/2012</text>
<g transform="translate(630 120) scale(1.2)">
<path d="M100 18 L135 62 H65 Z" fill="#f28c1e"/>
<path d="M58 72 L142 72 L162 116 H38 Z" fill="#0b4f8a"/>
<path d="M32 126 L168 126 L188 170 H12 Z" fill="#c7dcee"/>
<rect x="84" y="40" width="32" height="6" rx="3" fill="#ffffff"/>
<rect x="70" y="90" width="60" height="6" rx="3" fill="#ffffff"/>
<rect x="56" y="144" width="88" height="6" rx="3" fill="#083a66" opacity=".5"/>
</g>
</svg>