<svg xmlns="http://www.w3.org/2000/svg" viewBox="0 0 960 480" role="img" aria-label="Industrial Hygiene &amp; Kaitannya dengan SMK3">
<defs>
<linearGradient id="bg" x1="0" y1="0" x2="1" y2="1">
<stop offset="0" stop-color="#f4f8fb"/><stop offset="1" stop-color="#dcE9f4"/>
</linearGradient>
<pattern id="dots" width="26" height="26" patternUnits="userSpaceOnUse">
<circle cx="3" cy="3" r="2" fill="#c7dcee" opacity=".55"/>
</pattern>
</defs>
<rect width="960" height="480" fill="url(#bg)"/>
<rect width="960" height="480" fill="url(#dots)"/>
<circle cx="750" cy="240" r="215" fill="#ffffff" opacity=".65"/>
<circle cx="750" cy="240" r="168" fill="#e8f1f9"/>
<path d="M0 470 q240 -36 480 0 q240 36 480 0 v10 h-960 z" fill="#0b4f8a" opacity=".12"/>
<rect x="66" y="118" width="56" height="10" rx="5" fill="#f28c1e"/>
<text x="70" y="166" font-family="Arial, sans-serif" font-size="21" font-weight="bold" letter-spacing="2" fill="#0b4f8a">K3 PENDUKUNG • HIGIENE</text>
<text x="70" y="235" font-family="Arial, sans-serif" font-size="30" font-weight="bold" fill="#083a66">Industrial Hygiene &amp; Kaitannya</text><text x="70" y="275" font-family="Arial, sans-serif" font-size="30" font-weight="bold" fill="#083a66">dengan SMK3</text>
<rect x="70" y="330" width="140" height="42" rx="21" fill="#0b4f8a" opacity=".1"/>
<text x="140" y="357" text-anchor="middle" font-family="Arial, sans-serif" font-size="17" font-weight="bold" fill="#083a66">PP 50/2012</text>
<g transform="translate(630 120) scale(1.2)">
<circle cx="100" cy="90" r="55" fill="#c7dcee"/>
<path d="M55 85 a45 40 0 0 1 90 0 v18 a45 34 0 0 1 -90 0 z" fill="#0b4f8a"/>
<ellipse cx="100" cy="112" rx="24" ry="18" fill="#e8f1f9"/>
<circle cx="100" cy="112" r="9" fill="#f28c1e"/>
<circle cx="45" cy="35" r="5" fill="#f28c1e" opacity=".8"/><circle cx="62" cy="22" r="4" fill="#c7dcee"/>
<circle cx="152" cy="30" r="6" fill="#f28c1e" opacity=".6"/><circle cx="166" cy="48" r="4" fill="#c7dcee"/>
<path d="M56 68 l-22 -8 M144 68 l22 -8" stroke="#083a66" stroke-width="6" stroke-linecap="round"/>
</g>
</svg>