<svg xmlns="http://www.w3.org/2000/svg" viewBox="0 0 960 480" role="img" aria-label="Permit to Work">
<defs>
<linearGradient id="bg" x1="0" y1="0" x2="1" y2="1">
<stop offset="0" stop-color="#f4f8fb"/><stop offset="1" stop-color="#dcE9f4"/>
</linearGradient>
<pattern id="dots" width="26" height="26" patternUnits="userSpaceOnUse">
<circle cx="3" cy="3" r="2" fill="#c7dcee" opacity=".55"/>
</pattern>
</defs>
<rect width="960" height="480" fill="url(#bg)"/>
<rect width="960" height="480" fill="url(#dots)"/>
<circle cx="750" cy="240" r="215" fill="#ffffff" opacity=".65"/>
<circle cx="750" cy="240" r="168" fill="#e8f1f9"/>
<path d="M0 470 q240 -36 480 0 q240 36 480 0 v10 h-960 z" fill="#0b4f8a" opacity=".12"/>
<rect x="66" y="118" width="56" height="10" rx="5" fill="#f28c1e"/>
<text x="70" y="166" font-family="Arial, sans-serif" font-size="21" font-weight="bold" letter-spacing="2" fill="#0b4f8a">K3 PENDUKUNG • PTW</text>
<text x="70" y="250" font-family="Arial, sans-serif" font-size="30" font-weight="bold" fill="#083a66">Permit to Work</text>
<rect x="70" y="330" width="140" height="42" rx="21" fill="#0b4f8a" opacity=".1"/>
<text x="140" y="357" text-anchor="middle" font-family="Arial, sans-serif" font-size="17" font-weight="bold" fill="#083a66">PP 50/2012</text>
<g transform="translate(630 120) scale(1.2)">
<rect x="40" y="18" width="120" height="150" rx="10" fill="#f28c1e"/>
<rect x="52" y="32" width="96" height="122" rx="6" fill="#ffffff"/>
<rect x="78" y="10" width="44" height="18" rx="6" fill="#083a66"/>
<rect x="64" y="48" width="72" height="8" rx="4" fill="#c7dcee"/>
<rect x="64" y="66" width="72" height="8" rx="4" fill="#c7dcee"/>
<rect x="64" y="84" width="50" height="8" rx="4" fill="#c7dcee"/>
<path d="M64 128 q12 -14 24 0 q12 14 24 0" stroke="#0b4f8a" stroke-width="4" fill="none"/>
<circle cx="130" cy="126" r="15" fill="#1eaa54"/>
<path d="M123 126 l5 5 10 -11" stroke="#ffffff" stroke-width="4" fill="none" stroke-linecap="round"/>
</g>
</svg>