<svg xmlns="http://www.w3.org/2000/svg" viewBox="0 0 960 480" role="img" aria-label="SMK3 untuk Perusahaan Manufaktur">
<defs>
<linearGradient id="bg" x1="0" y1="0" x2="1" y2="1">
<stop offset="0" stop-color="#f4f8fb"/><stop offset="1" stop-color="#dcE9f4"/>
</linearGradient>
<pattern id="dots" width="26" height="26" patternUnits="userSpaceOnUse">
<circle cx="3" cy="3" r="2" fill="#c7dcee" opacity=".55"/>
</pattern>
</defs>
<rect width="960" height="480" fill="url(#bg)"/>
<rect width="960" height="480" fill="url(#dots)"/>
<circle cx="750" cy="240" r="215" fill="#ffffff" opacity=".65"/>
<circle cx="750" cy="240" r="168" fill="#e8f1f9"/>
<path d="M0 470 q240 -36 480 0 q240 36 480 0 v10 h-960 z" fill="#0b4f8a" opacity=".12"/>
<rect x="66" y="118" width="56" height="10" rx="5" fill="#f28c1e"/>
<text x="70" y="166" font-family="Arial, sans-serif" font-size="21" font-weight="bold" letter-spacing="2" fill="#0b4f8a">INDUSTRI • MANUFAKTUR</text>
<text x="70" y="250" font-family="Arial, sans-serif" font-size="30" font-weight="bold" fill="#083a66">SMK3 untuk Perusahaan Manufaktur</text>
<rect x="70" y="330" width="140" height="42" rx="21" fill="#0b4f8a" opacity=".1"/>
<text x="140" y="357" text-anchor="middle" font-family="Arial, sans-serif" font-size="17" font-weight="bold" fill="#083a66">PP 50/2012</text>
<g transform="translate(630 120) scale(1.2)">
<path d="M25 175 v-70 l38 24 v-24 l38 24 v-24 l38 24 v46 z" fill="#0b4f8a"/>
<rect x="140" y="85" width="20" height="90" fill="#083a66"/>
<g transform="translate(120 55)">
<circle r="34" fill="#f28c1e"/>
<circle r="14" fill="#ffffff"/>
<g fill="#f28c1e">
<rect x="-6" y="-48" width="12" height="16" rx="4"/><rect x="-6" y="32" width="12" height="16" rx="4"/>
<rect x="-48" y="-6" width="16" height="12" rx="4"/><rect x="32" y="-6" width="16" height="12" rx="4"/>
<rect x="-40" y="-40" width="14" height="14" rx="4" transform="rotate(45)"/><rect x="26" y="-40" width="14" height="14" rx="4" transform="rotate(45)"/>
</g>
</g>
<rect x="40" y="130" width="14" height="14" fill="#e8f1f9"/><rect x="66" y="130" width="14" height="14" fill="#e8f1f9"/>
</g>
</svg>